<svg xmlns="http://www.w3.org/2000/svg" version="1.1" xmlns:xlink="http://www.w3.org/1999/xlink" xmlns:svgjs="http://svgjs.dev/svgjs" width="2000" height="611" viewBox="0 0 2000 611"><g transform="matrix(1,0,0,1,-1.2121212121212466,-0.8541948612617034)"><svg viewBox="0 0 396 121" data-background-color="#b19dd0" preserveAspectRatio="xMidYMid meet" height="611" width="2000" xmlns="http://www.w3.org/2000/svg" xmlns:xlink="http://www.w3.org/1999/xlink"><g id="tight-bounds" transform="matrix(1,0,0,1,0.2400000000000091,0.16916133913693443)"><svg viewBox="0 0 395.52 120.66167732172612" height="120.66167732172612" width="395.52"><g><svg viewBox="0 0 615.2925434755489 187.70790437730284" height="120.66167732172612" width="395.52"><g transform="matrix(1,0,0,1,0,25.942264642593955)"><svg viewBox="0 0 395.52 135.82337509211493" height="135.82337509211493" width="395.52"><g id="textblocktransform"><svg viewBox="0 0 395.52 135.82337509211493" height="135.82337509211493" width="395.52" id="textblock"><g><svg viewBox="0 0 395.52 135.82337509211493" height="135.82337509211493" width="395.52"><g transform="matrix(1,0,0,1,0,0)"><svg width="395.52" viewBox="1.25 -36.75 135.68 46.6" height="135.82337509211493" data-palette-color="#000000"><path d="M7.85 0.5L7.85 0.5Q4.4 0.5 2.83-0.48 1.25-1.45 1.25-2.5L1.25-2.5Q1.25-3.1 1.5-3.93 1.75-4.75 2.3-5.4L2.3-5.4Q3.1-4.65 4.38-4.15 5.65-3.65 7.45-3.65L7.45-3.65Q10.1-3.65 11.23-5.05 12.35-6.45 12.35-8.75L12.35-8.75Q12.35-10.45 11.73-11.9 11.1-13.35 9.45-15.25L9.45-15.25 4.45-21.1Q2.75-23.2 2.02-24.88 1.3-26.55 1.3-28.35L1.3-28.35Q1.3-31.5 3.53-33.5 5.75-35.5 9.9-35.5L9.9-35.5Q13.45-35.5 14.95-34.77 16.45-34.05 16.45-33L16.45-33Q16.45-32.5 16.2-31.88 15.95-31.25 15.45-30.7L15.45-30.7Q14.95-31.05 13.63-31.48 12.3-31.9 10.55-31.9L10.55-31.9Q8.3-31.9 6.98-31 5.65-30.1 5.65-28.45L5.65-28.45Q5.65-27.1 6.28-25.98 6.9-24.85 8-23.5L8-23.5 13.4-17.35Q15.35-15.05 16.05-13.15 16.75-11.25 16.75-8.9L16.75-8.9Q16.75-6.4 15.93-4.25 15.1-2.1 13.18-0.8 11.25 0.5 7.85 0.5ZM20.15 0L20.15 0 20.15-23.8Q21.15-24.25 22.5-24.63 23.85-25 25.3-25.25 26.75-25.5 28.1-25.5L28.1-25.5Q30.7-25.5 32.25-24.83 33.8-24.15 34.45-22.7 35.1-21.25 35.1-18.8L35.1-18.8 35.1-0.8Q35.1-0.4 34.9-0.25 34.7-0.1 33.85-0.05 33 0 30.9 0L30.9 0 30.9-17.6Q30.9-19.95 30.35-20.95 29.8-21.95 27.95-21.95L27.95-21.95Q27.1-21.95 26.05-21.75 25-21.55 24.2-21.05L24.2-21.05 24.2-0.8Q24.2-0.4 24.02-0.25 23.85-0.1 23-0.05 22.15 0 20.15 0ZM45.6 0.5L45.6 0.5Q44.2 0.5 42.92 0.28 41.65 0.05 40.65-0.73 39.65-1.5 39.05-3 38.45-4.5 38.45-7.1L38.45-7.1Q38.45-9.7 39-11.33 39.55-12.95 40.5-13.83 41.45-14.7 42.65-15 43.85-15.3 45.1-15.3L45.1-15.3Q45.9-15.3 46.97-15.15 48.05-15 48.8-14.65L48.8-14.65Q48.8-14.65 48.8-15.35 48.8-16.05 48.8-16.98 48.8-17.9 48.8-18.6L48.8-18.6Q48.8-19.8 48.42-20.43 48.05-21.05 47.37-21.33 46.7-21.6 45.7-21.6L45.7-21.6Q43.75-21.6 41.95-21.25 40.15-20.9 39.05-20.45L39.05-20.45Q38.7-21.05 38.6-21.68 38.5-22.3 38.5-22.8L38.5-22.8Q38.5-23.15 38.62-23.55 38.75-23.95 39.05-24.15L39.05-24.15Q39.7-24.55 41.75-25.03 43.8-25.5 46.65-25.5L46.65-25.5Q49.9-25.5 51.37-24.15 52.85-22.8 52.85-19.4L52.85-19.4 52.85-16.75Q52.85-13.9 52.82-11.03 52.8-8.15 52.75-5.63 52.7-3.1 52.55-1.2L52.55-1.2Q51.55-0.6 49.8-0.05 48.05 0.5 45.6 0.5ZM46-2.9L46-2.9Q46.8-2.9 47.55-3.15 48.3-3.4 48.6-3.75L48.6-3.75Q48.7-4.55 48.72-5.95 48.75-7.35 48.77-8.9 48.8-10.45 48.8-11.8L48.8-11.8Q48.3-12.05 47.62-12.15 46.95-12.25 46.45-12.25L46.45-12.25Q45.65-12.25 44.97-12.08 44.3-11.9 43.8-11.38 43.3-10.85 43-9.85 42.7-8.85 42.7-7.2L42.7-7.2Q42.7-5.85 42.92-5 43.15-4.15 43.6-3.68 44.05-3.2 44.65-3.05 45.25-2.9 46-2.9ZM58.94 9.85L58.94 9.85Q57.89 9.85 57.44 9.47 56.99 9.1 56.99 8.1L56.99 8.1 56.99-23.5Q58.49-24.45 60.39-24.98 62.29-25.5 64.29-25.5L64.29-25.5Q66.79-25.5 68.62-24.63 70.44-23.75 71.44-21.48 72.44-19.2 72.44-15.1L72.44-15.1Q72.44-11.1 71.99-8.33 71.54-5.55 70.79-3.8 70.04-2.05 69.07-1.13 68.09-0.2 67.07 0.15 66.04 0.5 64.99 0.5L64.99 0.5Q63.64 0.5 62.62 0.1 61.59-0.3 61.04-0.9L61.04-0.9 61.04 9.5Q60.54 9.65 59.99 9.75 59.44 9.85 58.94 9.85ZM63.74-3.15L63.74-3.15Q64.34-3.15 65.04-3.5 65.74-3.85 66.42-5 67.09-6.15 67.52-8.45 67.94-10.75 67.94-14.65L67.94-14.65Q67.94-17.65 67.52-19.23 67.09-20.8 66.24-21.38 65.39-21.95 64.09-21.95L64.09-21.95Q62.39-21.95 61.04-21L61.04-21 61.04-4.8Q61.59-3.9 62.29-3.53 62.99-3.15 63.74-3.15ZM76.09 0L76.09 0 76.09-34.9Q76.09-35.85 76.42-36.23 76.74-36.6 77.64-36.68 78.54-36.75 80.19-36.75L80.19-36.75 80.19-23.2Q81.44-24.25 83.14-24.88 84.84-25.5 86.44-25.5L86.44-25.5Q88.09-25.5 89.02-24.9 89.94-24.3 90.32-23.33 90.69-22.35 90.69-21.2L90.69-21.2Q90.69-19.6 90.24-18.35 89.79-17.1 89.09-16.13 88.39-15.15 87.72-14.48 87.04-13.8 86.54-13.45L86.54-13.45Q87.74-12.95 88.79-11.83 89.84-10.7 90.57-9 91.29-7.3 91.49-5L91.49-5Q91.59-4.1 91.57-3.03 91.54-1.95 91.39-0.8L91.39-0.8Q91.34-0.4 91.14-0.23 90.94-0.05 90.02-0.03 89.09 0 86.79 0L86.79 0Q86.99-1.85 86.99-3.38 86.99-4.9 86.79-6.15L86.79-6.15Q86.54-7.65 86.09-8.7 85.64-9.75 85.04-10.38 84.44-11 83.77-11.23 83.09-11.45 82.39-11.3L82.39-11.3Q81.94-11.2 81.42-10.98 80.89-10.75 80.54-10.55 80.19-10.35 80.19-10.35L80.19-10.35 80.19-0.8Q80.19-0.4 80.02-0.25 79.84-0.1 79.02-0.05 78.19 0 76.09 0ZM80.19-19.45L80.19-13.25Q81.94-14 83.29-14.9 84.64-15.8 85.42-17.03 86.19-18.25 86.19-19.8L86.19-19.8Q86.19-21.85 84.34-21.85L84.34-21.85Q83.29-21.85 82.24-21.28 81.19-20.7 80.19-19.45L80.19-19.45ZM101.19 0.5L101.19 0.5Q99.79 0.5 98.51 0.28 97.24 0.05 96.24-0.73 95.24-1.5 94.64-3 94.04-4.5 94.04-7.1L94.04-7.1Q94.04-9.7 94.59-11.33 95.14-12.95 96.09-13.83 97.04-14.7 98.24-15 99.44-15.3 100.69-15.3L100.69-15.3Q101.49-15.3 102.56-15.15 103.64-15 104.39-14.65L104.39-14.65Q104.39-14.65 104.39-15.35 104.39-16.05 104.39-16.98 104.39-17.9 104.39-18.6L104.39-18.6Q104.39-19.8 104.01-20.43 103.64-21.05 102.96-21.33 102.29-21.6 101.29-21.6L101.29-21.6Q99.34-21.6 97.54-21.25 95.74-20.9 94.64-20.45L94.64-20.45Q94.29-21.05 94.19-21.68 94.09-22.3 94.09-22.8L94.09-22.8Q94.09-23.15 94.21-23.55 94.34-23.95 94.64-24.15L94.64-24.15Q95.29-24.55 97.34-25.03 99.39-25.5 102.24-25.5L102.24-25.5Q105.49-25.5 106.96-24.15 108.44-22.8 108.44-19.4L108.44-19.4 108.44-16.75Q108.44-13.9 108.41-11.03 108.39-8.15 108.34-5.63 108.29-3.1 108.14-1.2L108.14-1.2Q107.14-0.6 105.39-0.05 103.64 0.5 101.19 0.5ZM101.59-2.9L101.59-2.9Q102.39-2.9 103.14-3.15 103.89-3.4 104.19-3.75L104.19-3.75Q104.29-4.55 104.31-5.95 104.34-7.35 104.36-8.9 104.39-10.45 104.39-11.8L104.39-11.8Q103.89-12.05 103.21-12.15 102.54-12.25 102.04-12.25L102.04-12.25Q101.24-12.25 100.56-12.08 99.89-11.9 99.39-11.38 98.89-10.85 98.59-9.85 98.29-8.85 98.29-7.2L98.29-7.2Q98.29-5.85 98.51-5 98.74-4.15 99.19-3.68 99.64-3.2 100.24-3.05 100.84-2.9 101.59-2.9ZM112.54 0L112.54 0 112.54-23.25Q113.99-24.3 115.74-24.9 117.49-25.5 119.34-25.5L119.34-25.5Q121.29-25.5 122.06-24.98 122.84-24.45 122.84-23.4L122.84-23.4Q122.84-23 122.74-22.33 122.64-21.65 122.39-21L122.39-21Q121.84-21.3 121.24-21.45 120.64-21.6 119.99-21.6L119.99-21.6Q119.14-21.6 118.26-21.33 117.39-21.05 116.69-20.5L116.69-20.5 116.64-0.8Q116.64-0.4 116.46-0.25 116.29-0.1 115.44-0.05 114.59 0 112.54 0ZM132.53 0.5L132.53 0.5Q130.43 0.5 129.41-0.43 128.38-1.35 128.08-3.03 127.78-4.7 127.78-6.95L127.78-6.95 127.78-21.5 124.38-21.5Q124.38-23.1 124.41-23.83 124.43-24.55 124.63-24.78 124.83-25 125.23-25L125.23-25 127.78-25 127.78-32.6Q127.78-33.35 128.11-33.63 128.43-33.9 129.31-33.95 130.18-34 131.83-34L131.83-34 131.83-25 136.93-25Q136.93-23.45 136.91-22.7 136.88-21.95 136.71-21.73 136.53-21.5 136.13-21.5L136.13-21.5 131.83-21.5 131.83-6.95Q131.83-5.9 131.91-4.98 131.98-4.05 132.36-3.53 132.73-3 133.63-3L133.63-3Q134.48-3 135.13-3.18 135.78-3.35 136.53-3.75L136.53-3.75Q136.63-3.35 136.73-2.85 136.83-2.35 136.83-1.7L136.83-1.7Q136.83-0.8 136.16-0.33 135.48 0.15 134.51 0.33 133.53 0.5 132.53 0.5Z" opacity="1" transform="matrix(1,0,0,1,0,0)" fill="#000000" class="wordmark-text-0" data-fill-palette-color="primary" id="text-0"></path></svg></g></svg></g></svg></g></svg></g><g transform="matrix(1,0,0,1,427.5846390982461,0)"><svg viewBox="0 0 187.70790437730284 187.70790437730284" height="187.70790437730284" width="187.70790437730284"><g data-palette-color="#000000"><rect width="51.30682719646277" height="187.70790437730284" fill="#000000" stroke="transparent" data-fill-palette-color="accent" x="0" fill-opacity="1"></rect><rect width="51.30682719646277" height="187.70790437730284" fill="#000000" stroke="transparent" data-fill-palette-color="accent" x="62.56930145910094" fill-opacity="0.75"></rect><rect width="51.30682719646277" height="187.70790437730284" fill="#000000" stroke="transparent" data-fill-palette-color="accent" x="125.13860291820188" fill-opacity="0.5"></rect></g></svg></g></svg></g><defs></defs></svg><rect width="395.52" height="120.66167732172612" fill="none" stroke="none" visibility="hidden"></rect></g></svg></g></svg>